<?xml version="1.0" encoding="UTF-8" standalone="no"?><!DOCTYPE svg PUBLIC "-//W3C//DTD SVG 1.1//EN" "http://www.w3.org/Graphics/SVG/1.1/DTD/svg11.dtd"><svg width="100%" height="100%" viewBox="0 0 2084 167" version="1.1" xmlns="http://www.w3.org/2000/svg" xmlns:xlink="http://www.w3.org/1999/xlink" xml:space="preserve" xmlns:serif="http://www.serif.com/" style="fill-rule:evenodd;clip-rule:evenodd;stroke-linejoin:round;stroke-miterlimit:2;"><path d="M72.761,162.706c-5.89,-0 -11.397,-0.667 -16.519,-2c-5.122,-1.334 -9.347,-3.067 -12.677,-5.2c-3.329,-2 -6.274,-4.467 -8.835,-7.4c-2.561,-2.934 -4.61,-5.867 -6.147,-8.8c-2.561,-4.534 -4.482,-10.2 -5.762,-17l-0.768,-6.2c-0,-1.334 -0.064,-2.2 -0.192,-2.6c-0.129,-0.4 -0.193,-0.667 -0.193,-0.8c-1.28,-6.534 -2.881,-20.934 -4.801,-43.2c-1.921,-22.267 -2.882,-39.6 -2.882,-52l0,-3c0,-3.467 1.921,-5.2 5.763,-5.2c5.378,-0 8.067,1.6 8.067,4.8l-0,1.4l-0.384,1.6c-0,15.466 0.896,33.766 2.689,54.9c1.793,21.133 3.585,36.366 5.378,45.7c1.281,5.866 3.457,11.866 6.531,18c2.048,4.133 4.289,7.6 6.722,10.4c2.433,2.8 5.571,5.133 9.412,7c4.61,2.133 9.092,3.2 13.445,3.2c4.354,-0 8.26,-0.534 11.717,-1.6c3.457,-1.067 6.083,-2.467 7.875,-4.2c1.793,-1.467 3.266,-3.367 4.418,-5.7c1.152,-2.334 1.857,-4.567 2.113,-6.7c0.256,-1.334 0.384,-3.534 0.384,-6.6l0,-22.8c0,-10.134 -0.512,-22.6 -1.537,-37.4l-1.536,-25.6l-0.769,-17c-0.768,-7.467 -1.152,-13.134 -1.152,-17c0,-1.467 0.768,-2.6 2.305,-3.4c1.537,-0.8 3.329,-1.2 5.378,-1.2c2.049,-0 3.778,0.4 5.186,1.2c1.409,0.8 2.113,1.933 2.113,3.4l-0,15.2c-0,6.666 0.128,12.666 0.384,18l0,18c0,12.933 0.256,24.266 0.768,34c0.257,9.866 0.385,20.933 0.385,33.2c-0,3.333 -0.256,6.266 -0.769,8.8c-0.512,2.533 -1.536,5.2 -3.073,8c-1.537,3.2 -3.649,5.9 -6.338,8.1c-2.69,2.2 -6.211,4.033 -10.565,5.5c-4.866,1.466 -10.244,2.2 -16.134,2.2Z" style="fill:url(#_Linear1);fill-rule:nonzero;"/><path d="M240.636,161.106c-1.793,-0 -3.457,-0.467 -4.994,-1.4c-1.537,-0.934 -2.561,-2 -3.073,-3.2l-1.153,-3.8c-0.768,-1.6 -1.152,-2.6 -1.152,-3c-28.684,-53.467 -44.434,-83.467 -47.251,-90c-2.305,-4.8 -7.555,-18.134 -15.75,-40c-0.256,0.8 -0.385,3.533 -0.385,8.2l0,72.4l0.769,28.6l0.768,28.4l-2.305,1.6l-8.835,-0l-1.153,-1.6c0.512,-1.334 0.768,-4 0.768,-8l-0.384,-34.8l-0.768,-34.8l0,-45.2c-0.256,-5.6 -0.384,-11.867 -0.384,-18.8c-0,-0.8 -0.128,-1.534 -0.384,-2.2l-0,-2c-0,-1.6 0.832,-2.7 2.497,-3.3c1.664,-0.6 4.289,-0.9 7.875,-0.9c1.536,-0 3.265,0.4 5.186,1.2c1.921,0.8 3.137,1.666 3.649,2.6l8.068,19.6c3.585,9.333 6.658,16.4 9.219,21.2c5.378,11.066 14.598,29.2 27.659,54.4c7.427,16.533 14.086,29.2 19.976,38c1.537,-2 2.305,-5.2 2.305,-9.6c0,-12.934 0.256,-24.534 0.769,-34.8l0.768,-34.8c-0,-5.734 0.128,-10.934 0.384,-15.6l0,-15.4l-0.384,-28.2c1.28,-1.867 3.969,-2.8 8.067,-2.8c2.049,-0 3.073,1.933 3.073,5.8c0,1.733 -0.128,3.133 -0.384,4.2c0,1.066 -0.064,1.833 -0.192,2.3c-0.128,0.466 -0.192,0.766 -0.192,0.9l0,12.8c0,17.733 -0.128,33.533 -0.384,47.4c-0.256,14 -0.384,29.733 -0.384,47.2c-0,3.333 -0.384,8.6 -1.153,15.8l-0.768,15.8c-0,3.866 -3.329,5.8 -9.988,5.8Z" style="fill:url(#_Linear2);fill-rule:nonzero;"/><path d="M337.058,158.106c-6.146,-0.134 -13.957,-0.2 -23.433,-0.2c-1.793,-0 -3.393,-0.334 -4.802,-1c-1.408,-0.667 -2.113,-1.4 -2.113,-2.2c0,-1.734 2.177,-2.6 6.531,-2.6l14.982,-0c-0,-15.334 -0.896,-34.667 -2.689,-58c-1.025,-18.667 -2.049,-33.334 -3.073,-44l0.384,-10.2l-0,-13.2c-0,-6.667 -0.256,-10.934 -0.769,-12.8l-13.445,-0c-2.561,-0 -3.841,-0.934 -3.841,-2.8c-0,-1.2 1.024,-2.134 3.073,-2.8c1.793,-0.4 6.53,-0.6 14.213,-0.6l10.757,-0c3.841,0.133 8.707,0.2 14.598,0.2c2.048,-0 3.713,0.233 4.994,0.7c1.28,0.466 1.92,1.166 1.92,2.1c0,0.8 -0.384,1.533 -1.152,2.2c-0.768,0.666 -1.921,1 -3.457,1c-1.793,-0 -3.33,-0.067 -4.61,-0.2l-8.452,-0c-2.561,-0 -4.097,0.133 -4.61,0.4l-0.768,0.8c0,10.4 1.665,31.4 4.994,63c3.073,29.2 4.61,50.2 4.61,63l0,5.6c-0.256,1.733 -0.384,3.533 -0.384,5.4l13.829,-0c5.891,-0 8.836,0.933 8.836,2.8c-0,0.8 -0.576,1.566 -1.729,2.3c-1.152,0.733 -2.369,1.1 -3.649,1.1l-20.745,-0Z" style="fill:url(#_Linear3);fill-rule:nonzero;"/><path d="M463.445,162.106c-7.171,-0 -14.726,-1.467 -22.665,-4.4c-7.939,-2.934 -13.574,-6.267 -16.903,-10c-3.073,-3.467 -6.21,-14.467 -9.412,-33c-3.201,-18.534 -4.802,-32.334 -4.802,-41.4l0,-10.6c-0.256,-3.067 -0.384,-6.467 -0.384,-10.2c0,-6.934 0.769,-13.8 2.305,-20.6c1.025,-3.334 2.369,-6.2 4.034,-8.6c1.665,-2.4 4.033,-4.734 7.107,-7c5.634,-4.534 14.085,-7.534 25.354,-9c5.89,-0.8 12.421,-1.2 19.592,-1.2c4.866,-0 9.796,0.733 14.79,2.2c4.994,1.466 7.491,3.2 7.491,5.2c-0,1.466 -2.049,2.2 -6.147,2.2c-1.537,-0 -4.482,-0.467 -8.835,-1.4c-3.842,-0.934 -7.299,-1.4 -10.373,-1.4c-7.17,-0 -13.637,0.766 -19.399,2.3c-5.763,1.533 -10.308,3.566 -13.638,6.1c-2.817,2.133 -5.25,5.066 -7.299,8.8c-2.048,3.733 -3.329,7.466 -3.841,11.2c-0.769,3.333 -1.153,7.333 -1.153,12l0.384,11.2c0.257,3.2 0.385,6.666 0.385,10.4c-0,9.2 1.792,22.733 5.378,40.6c3.585,17.866 7.043,28.2 10.372,31c3.073,2.533 7.619,4.466 13.637,5.8c6.019,1.333 12.357,2 19.016,2c11.781,-0 20.744,-1.934 26.891,-5.8c2.305,-1.6 4.738,-2.4 7.299,-2.4c2.305,-0 3.457,0.933 3.457,2.8c0,2.4 -1.409,4.5 -4.226,6.3c-2.817,1.8 -6.658,3.166 -11.524,4.1c-8.196,1.866 -17.159,2.8 -26.891,2.8Z" style="fill:url(#_Linear4);fill-rule:nonzero;"/><path d="M589.447,163.106c-35.598,-0 -53.397,-32.067 -53.397,-96.2l-0,-8c-0,-11.2 1.28,-20.934 3.842,-29.2c1.536,-5.2 3.649,-9.467 6.338,-12.8c2.689,-3.334 6.339,-6 10.948,-8c4.354,-2.267 9.988,-3.4 16.903,-3.4c6.147,-0 11.781,0.633 16.903,1.9c5.122,1.266 9.348,2.9 12.677,4.9c2.817,1.866 5.378,4.333 7.683,7.4c2.305,3.066 4.098,6 5.378,8.8l3.073,9.4c6.147,22.8 9.22,43 9.22,60.6l0,0.6c0,6.666 -0.256,12.8 -0.768,18.4c-0.512,6.666 -1.921,13.666 -4.226,21c-1.024,3.6 -2.497,6.733 -4.418,9.4c-1.92,2.666 -4.417,5.333 -7.491,8c-5.378,4.8 -12.933,7.2 -22.665,7.2Zm0.769,-5.6c4.097,-0 7.811,-1.234 11.14,-3.7c3.329,-2.467 5.89,-5.9 7.683,-10.3c4.098,-9.334 6.659,-18.467 7.683,-27.4c0.512,-7.2 0.769,-14.2 0.769,-21l-0,-0.8l-0.385,-20c-0.512,-7.2 -2.048,-16.534 -4.609,-28c-2.049,-8.134 -6.275,-16.467 -12.678,-25c-2.561,-3.334 -5.954,-5.934 -10.18,-7.8c-4.225,-1.867 -8.771,-2.8 -13.637,-2.8c-4.354,-0 -8.195,1.066 -11.525,3.2c-3.329,2.133 -6.018,5.133 -8.067,9c-4.61,8.933 -7.171,17.2 -7.683,24.8c-0.768,6.533 -1.152,13.266 -1.152,20.2l-0,9.8c-0,8.933 1.664,20.266 4.994,34c2.048,8.666 4.609,16.2 7.683,22.6c3.073,6.4 7.171,11.8 12.293,16.2c5.122,4.666 11.012,7 17.671,7Z" style="fill:url(#_Linear5);fill-rule:nonzero;"/><path d="M747.719,160.906c-5.122,-0 -8.324,-1.334 -9.604,-4l-4.61,-8.8c-7.171,-12.4 -12.421,-22.867 -15.75,-31.4c-2.049,-4.667 -4.61,-11.134 -7.683,-19.4c-3.586,-9.6 -6.915,-17.4 -9.988,-23.4l-3.842,1.2l-4.994,1.2l0.768,77l0,3c0,2.666 -2.305,4 -6.914,4c-2.049,-0 -3.714,-0.334 -4.994,-1c-1.281,-0.667 -1.921,-1.467 -1.921,-2.4l-0,-3l0.768,-40.4l0.768,-19.4c1.025,-23.334 1.537,-43.2 1.537,-59.6l0,-25.8c0,-1.2 2.305,-1.8 6.915,-1.8c6.658,-0 12.869,0.933 18.631,2.8c5.763,1.866 10.308,4.4 13.638,7.6c6.914,6.533 10.372,13.666 10.372,21.4c-0,6.133 -2.561,12.8 -7.683,20c-1.537,2 -3.458,4.3 -5.763,6.9c-2.304,2.6 -4.353,4.366 -6.146,5.3c5.378,10.266 13.189,26.066 23.433,47.4l18.056,36c0.256,0.4 0.384,1.133 0.384,2.2c-0,1.2 -0.448,2.233 -1.345,3.1c-0.896,0.866 -2.241,1.3 -4.033,1.3Zm-56.855,-91.2c2.049,-0 5.506,-1.267 10.372,-3.8c4.866,-2.534 8.323,-4.667 10.372,-6.4c1.793,-1.867 3.329,-4.667 4.61,-8.4c1.28,-3.734 1.921,-7.067 1.921,-10c-0,-5.467 -1.793,-11.067 -5.378,-16.8c-1.793,-3.334 -4.482,-6.034 -8.068,-8.1c-3.585,-2.067 -7.555,-3.1 -11.908,-3.1l-0.769,-0c-0.256,0.133 -0.64,0.2 -1.152,0.2l-0,56.4Z" style="fill:url(#_Linear6);fill-rule:nonzero;"/><path d="M867.19,161.106c-1.792,-0 -3.457,-0.467 -4.994,-1.4c-1.536,-0.934 -2.561,-2 -3.073,-3.2l-1.152,-3.8c-0.769,-1.6 -1.153,-2.6 -1.153,-3c-28.683,-53.467 -44.434,-83.467 -47.251,-90c-2.305,-4.8 -7.555,-18.134 -15.75,-40c-0.256,0.8 -0.384,3.533 -0.384,8.2l-0,72.4l0.768,28.6l0.768,28.4l-2.304,1.6l-8.836,-0l-1.152,-1.6c0.512,-1.334 0.768,-4 0.768,-8l-0.384,-34.8l-0.769,-34.8l0,-45.2c-0.256,-5.6 -0.384,-11.867 -0.384,-18.8c0,-0.8 -0.128,-1.534 -0.384,-2.2l0,-2c0,-1.6 0.832,-2.7 2.497,-3.3c1.665,-0.6 4.29,-0.9 7.875,-0.9c1.537,-0 3.266,0.4 5.186,1.2c1.921,0.8 3.138,1.666 3.65,2.6l8.067,19.6c3.585,9.333 6.659,16.4 9.22,21.2c5.378,11.066 14.597,29.2 27.659,54.4c7.427,16.533 14.085,29.2 19.976,38c1.536,-2 2.305,-5.2 2.305,-9.6c-0,-12.934 0.256,-24.534 0.768,-34.8l0.768,-34.8c0,-5.734 0.128,-10.934 0.384,-15.6l0,-15.4l-0.384,-28.2c1.281,-1.867 3.97,-2.8 8.067,-2.8c2.049,-0 3.074,1.933 3.074,5.8c-0,1.733 -0.128,3.133 -0.384,4.2c-0,1.066 -0.065,1.833 -0.193,2.3c-0.128,0.466 -0.192,0.766 -0.192,0.9l0,12.8c0,17.733 -0.128,33.533 -0.384,47.4c-0.256,14 -0.384,29.733 -0.384,47.2c0,3.333 -0.384,8.6 -1.152,15.8l-0.769,15.8c0,3.866 -3.329,5.8 -9.988,5.8Z" style="fill:url(#_Linear7);fill-rule:nonzero;"/><path d="M1018.55,163.306c-4.61,-0 -8.131,-0.1 -10.564,-0.3c-2.433,-0.2 -5.058,-0.634 -7.876,-1.3c-3.073,-0.8 -5.378,-1.934 -6.914,-3.4c-0,-1.6 1.408,-2.4 4.225,-2.4c2.817,-0 6.403,0.466 10.757,1.4c4.097,1.066 7.555,1.6 10.372,1.6c5.634,-0 10.82,-1.2 15.558,-3.6c4.738,-2.4 8.387,-5.534 10.948,-9.4c5.122,-7.6 7.683,-14.334 7.683,-20.2c0,-6.534 -1.792,-13.134 -5.378,-19.8c-3.585,-6.667 -8.323,-12.934 -14.213,-18.8c-1.281,-1.467 -3.458,-3.667 -6.531,-6.6c-6.403,-6.667 -11.269,-11.867 -14.598,-15.6c-3.329,-3.734 -6.274,-7.867 -8.835,-12.4c-3.586,-6 -5.379,-12.467 -5.379,-19.4c0,-4.4 1.345,-8.634 4.034,-12.7c2.689,-4.067 6.979,-7.567 12.869,-10.5c6.403,-3.067 13.574,-4.6 21.513,-4.6c3.073,-0 6.787,0.633 11.14,1.9c4.354,1.266 6.531,2.5 6.531,3.7c-0,1.066 -0.768,1.6 -2.305,1.6c-1.537,-0 -3.585,-0.334 -6.146,-1c-2.305,-0.667 -4.482,-1 -6.531,-1c-5.89,-0 -11.077,1.133 -15.558,3.4c-4.482,2.266 -7.747,5.066 -9.796,8.4c-1.793,2.8 -2.689,5.866 -2.689,9.2c-0,5.2 1.28,10.566 3.841,16.1c2.561,5.533 6.019,10.7 10.372,15.5l13.446,14.6l3.841,4.2c5.378,5.733 9.54,10.466 12.485,14.2c2.945,3.733 5.442,7.933 7.491,12.6c2.817,6.266 4.226,12.266 4.226,18c-0,7.733 -3.842,15.6 -11.525,23.6c-3.841,3.866 -8.963,7 -15.366,9.4c-6.402,2.4 -13.445,3.6 -21.128,3.6Z" style="fill:url(#_Linear8);fill-rule:nonzero;"/><path d="M1167.6,163.106c-35.598,-0 -53.397,-32.067 -53.397,-96.2l-0,-8c-0,-11.2 1.281,-20.934 3.842,-29.2c1.536,-5.2 3.649,-9.467 6.338,-12.8c2.689,-3.334 6.339,-6 10.948,-8c4.354,-2.267 9.988,-3.4 16.903,-3.4c6.147,-0 11.781,0.633 16.903,1.9c5.122,1.266 9.348,2.9 12.677,4.9c2.817,1.866 5.378,4.333 7.683,7.4c2.305,3.066 4.098,6 5.378,8.8l3.073,9.4c6.147,22.8 9.22,43 9.22,60.6l0,0.6c0,6.666 -0.256,12.8 -0.768,18.4c-0.512,6.666 -1.921,13.666 -4.226,21c-1.024,3.6 -2.497,6.733 -4.418,9.4c-1.92,2.666 -4.417,5.333 -7.491,8c-5.378,4.8 -12.933,7.2 -22.665,7.2Zm0.769,-5.6c4.097,-0 7.811,-1.234 11.14,-3.7c3.329,-2.467 5.89,-5.9 7.683,-10.3c4.098,-9.334 6.659,-18.467 7.683,-27.4c0.512,-7.2 0.769,-14.2 0.769,-21l-0,-0.8l-0.385,-20c-0.512,-7.2 -2.048,-16.534 -4.609,-28c-2.049,-8.134 -6.275,-16.467 -12.678,-25c-2.561,-3.334 -5.954,-5.934 -10.18,-7.8c-4.225,-1.867 -8.771,-2.8 -13.637,-2.8c-4.354,-0 -8.195,1.066 -11.525,3.2c-3.329,2.133 -6.018,5.133 -8.067,9c-4.61,8.933 -7.171,17.2 -7.683,24.8c-0.768,6.533 -1.152,13.266 -1.152,20.2l-0,9.8c-0,8.933 1.664,20.266 4.994,34c2.048,8.666 4.609,16.2 7.683,22.6c3.073,6.4 7.171,11.8 12.293,16.2c5.122,4.666 11.012,7 17.671,7Z" style="fill:url(#_Linear9);fill-rule:nonzero;"/><path d="M1272.09,160.106c-1.793,-0 -3.265,-0.4 -4.418,-1.2c-1.152,-0.8 -1.728,-1.8 -1.728,-3l-0,-8c-0,-8.4 -0.641,-17.867 -1.921,-28.4c-1.025,-11.2 -1.537,-20.667 -1.537,-28.4c0,-7.2 -0.64,-21.134 -1.921,-41.8c-1.536,-18.667 -2.304,-32.6 -2.304,-41.8c-0,-0.667 0.576,-1.234 1.728,-1.7c1.153,-0.467 2.497,-0.7 4.034,-0.7c4.61,-0 6.915,1 6.915,3c-0,24.666 0.384,43.133 1.152,55.4l1.921,35.8c-0,5.6 0.768,14.733 2.305,27.4l2.305,24.8c-0,0.4 0.384,0.6 1.152,0.6c0.256,0.133 1.921,0.2 4.994,0.2l23.818,-0c3.329,-0 4.994,1.2 4.994,3.6c-0,1.066 -0.385,1.966 -1.153,2.7c-0.768,0.733 -1.921,1.1 -3.457,1.1l-2.689,0.2l-3.073,-0c-5.379,0.133 -15.751,0.2 -31.117,0.2Z" style="fill:url(#_Linear10);fill-rule:nonzero;"/><path d="M1406.54,162.706c-5.891,-0 -11.397,-0.667 -16.519,-2c-5.122,-1.334 -9.348,-3.067 -12.677,-5.2c-3.329,-2 -6.274,-4.467 -8.835,-7.4c-2.561,-2.934 -4.61,-5.867 -6.147,-8.8c-2.561,-4.534 -4.482,-10.2 -5.762,-17l-0.768,-6.2c-0,-1.334 -0.064,-2.2 -0.193,-2.6c-0.128,-0.4 -0.192,-0.667 -0.192,-0.8c-1.28,-6.534 -2.881,-20.934 -4.802,-43.2c-1.92,-22.267 -2.881,-39.6 -2.881,-52l0,-3c0,-3.467 1.921,-5.2 5.763,-5.2c5.378,-0 8.067,1.6 8.067,4.8l-0,1.4l-0.384,1.6c-0,15.466 0.896,33.766 2.689,54.9c1.792,21.133 3.585,36.366 5.378,45.7c1.28,5.866 3.457,11.866 6.531,18c2.048,4.133 4.289,7.6 6.722,10.4c2.433,2.8 5.57,5.133 9.412,7c4.61,2.133 9.092,3.2 13.445,3.2c4.354,-0 8.26,-0.534 11.717,-1.6c3.457,-1.067 6.082,-2.467 7.875,-4.2c1.793,-1.467 3.265,-3.367 4.418,-5.7c1.152,-2.334 1.857,-4.567 2.113,-6.7c0.256,-1.334 0.384,-3.534 0.384,-6.6l-0,-22.8c-0,-10.134 -0.512,-22.6 -1.537,-37.4l-1.536,-25.6l-0.769,-17c-0.768,-7.467 -1.152,-13.134 -1.152,-17c-0,-1.467 0.768,-2.6 2.305,-3.4c1.536,-0.8 3.329,-1.2 5.378,-1.2c2.049,-0 3.778,0.4 5.186,1.2c1.409,0.8 2.113,1.933 2.113,3.4l-0,15.2c-0,6.666 0.128,12.666 0.384,18l0,18c0,12.933 0.256,24.266 0.768,34c0.256,9.866 0.385,20.933 0.385,33.2c-0,3.333 -0.257,6.266 -0.769,8.8c-0.512,2.533 -1.536,5.2 -3.073,8c-1.537,3.2 -3.649,5.9 -6.339,8.1c-2.689,2.2 -6.21,4.033 -10.564,5.5c-4.866,1.466 -10.244,2.2 -16.134,2.2Z" style="fill:url(#_Linear11);fill-rule:nonzero;"/><path d="M1533.31,160.106c-2.561,-0 -4.481,-0.5 -5.762,-1.5c-1.28,-1 -1.921,-2.234 -1.921,-3.7l0,-35.6l-0.768,-32c-0.768,-14.267 -1.152,-24.934 -1.152,-32l0.384,-5.8l-0,-13c-0,-14.4 -0.256,-21.6 -0.769,-21.6l-43.409,-0c-2.049,-0 -3.905,-0.267 -5.57,-0.8c-1.665,-0.534 -2.497,-1.267 -2.497,-2.2c-0,-1.067 0.384,-1.8 1.152,-2.2c0.769,-0.4 2.817,-0.734 6.147,-1c3.585,-0.4 8.707,-0.6 15.366,-0.6l38.415,-0l42.257,-0.2c3.073,-0 5.186,0.266 6.339,0.8c1.152,0.533 1.728,1.4 1.728,2.6c0,2 -2.433,3 -7.299,3l-34.189,-0l-3.458,0.2l0.385,11.6l-0,113.4l0.384,14.8l-0,0.4c-0,1.066 -0.128,1.966 -0.384,2.7c-0.257,0.733 -0.769,1.3 -1.537,1.7c-0.768,0.666 -2.049,1 -3.842,1Z" style="fill:url(#_Linear12);fill-rule:nonzero;"/><path d="M1647.41,158.106c-6.146,-0.134 -13.958,-0.2 -23.433,-0.2c-1.793,-0 -3.394,-0.334 -4.802,-1c-1.409,-0.667 -2.113,-1.4 -2.113,-2.2c-0,-1.734 2.177,-2.6 6.531,-2.6l14.981,-0c0,-15.334 -0.896,-34.667 -2.689,-58c-1.024,-18.667 -2.048,-33.334 -3.073,-44l0.384,-10.2l0,-13.2c0,-6.667 -0.256,-10.934 -0.768,-12.8l-13.445,-0c-2.561,-0 -3.842,-0.934 -3.842,-2.8c0,-1.2 1.025,-2.134 3.073,-2.8c1.793,-0.4 6.531,-0.6 14.214,-0.6l10.756,-0c3.842,0.133 8.708,0.2 14.598,0.2c2.049,-0 3.714,0.233 4.994,0.7c1.281,0.466 1.921,1.166 1.921,2.1c-0,0.8 -0.384,1.533 -1.153,2.2c-0.768,0.666 -1.92,1 -3.457,1c-1.793,-0 -3.329,-0.067 -4.61,-0.2l-8.451,-0c-2.561,-0 -4.098,0.133 -4.61,0.4l-0.768,0.8c-0,10.4 1.664,31.4 4.994,63c3.073,29.2 4.61,50.2 4.61,63l-0,5.6c-0.257,1.733 -0.385,3.533 -0.385,5.4l13.83,-0c5.89,-0 8.835,0.933 8.835,2.8c0,0.8 -0.576,1.566 -1.728,2.3c-1.153,0.733 -2.369,1.1 -3.65,1.1l-20.744,-0Z" style="fill:url(#_Linear13);fill-rule:nonzero;"/><path d="M1773.02,163.106c-35.598,-0 -53.397,-32.067 -53.397,-96.2l-0,-8c-0,-11.2 1.28,-20.934 3.841,-29.2c1.537,-5.2 3.65,-9.467 6.339,-12.8c2.689,-3.334 6.338,-6 10.948,-8c4.354,-2.267 9.988,-3.4 16.903,-3.4c6.147,-0 11.781,0.633 16.903,1.9c5.122,1.266 9.348,2.9 12.677,4.9c2.817,1.866 5.378,4.333 7.683,7.4c2.305,3.066 4.098,6 5.378,8.8l3.073,9.4c6.147,22.8 9.22,43 9.22,60.6l0,0.6c0,6.666 -0.256,12.8 -0.768,18.4c-0.512,6.666 -1.921,13.666 -4.226,21c-1.024,3.6 -2.497,6.733 -4.418,9.4c-1.921,2.666 -4.417,5.333 -7.491,8c-5.378,4.8 -12.933,7.2 -22.665,7.2Zm0.769,-5.6c4.097,-0 7.811,-1.234 11.14,-3.7c3.329,-2.467 5.89,-5.9 7.683,-10.3c4.098,-9.334 6.659,-18.467 7.683,-27.4c0.512,-7.2 0.768,-14.2 0.768,-21l0,-0.8l-0.384,-20c-0.512,-7.2 -2.049,-16.534 -4.61,-28c-2.048,-8.134 -6.274,-16.467 -12.677,-25c-2.561,-3.334 -5.954,-5.934 -10.18,-7.8c-4.225,-1.867 -8.771,-2.8 -13.637,-2.8c-4.354,-0 -8.195,1.066 -11.525,3.2c-3.329,2.133 -6.018,5.133 -8.067,9c-4.61,8.933 -7.171,17.2 -7.683,24.8c-0.768,6.533 -1.153,13.266 -1.153,20.2l0,9.8c0,8.933 1.665,20.266 4.994,34c2.049,8.666 4.61,16.2 7.684,22.6c3.073,6.4 7.17,11.8 12.292,16.2c5.123,4.666 11.013,7 17.672,7Z" style="fill:url(#_Linear14);fill-rule:nonzero;"/><path d="M1942.05,161.106c-1.793,-0 -3.458,-0.467 -4.994,-1.4c-1.537,-0.934 -2.561,-2 -3.073,-3.2l-1.153,-3.8c-0.768,-1.6 -1.152,-2.6 -1.152,-3c-28.684,-53.467 -44.434,-83.467 -47.251,-90c-2.305,-4.8 -7.555,-18.134 -15.751,-40c-0.256,0.8 -0.384,3.533 -0.384,8.2l0,72.4l0.769,28.6l0.768,28.4l-2.305,1.6l-8.836,-0l-1.152,-1.6c0.512,-1.334 0.768,-4 0.768,-8l-0.384,-34.8l-0.768,-34.8l-0,-45.2c-0.256,-5.6 -0.384,-11.867 -0.384,-18.8c-0,-0.8 -0.128,-1.534 -0.384,-2.2l-0,-2c-0,-1.6 0.832,-2.7 2.497,-3.3c1.664,-0.6 4.289,-0.9 7.875,-0.9c1.536,-0 3.265,0.4 5.186,1.2c1.921,0.8 3.137,1.666 3.649,2.6l8.067,19.6c3.586,9.333 6.659,16.4 9.22,21.2c5.378,11.066 14.598,29.2 27.659,54.4c7.427,16.533 14.086,29.2 19.976,38c1.537,-2 2.305,-5.2 2.305,-9.6c0,-12.934 0.256,-24.534 0.768,-34.8l0.769,-34.8c-0,-5.734 0.128,-10.934 0.384,-15.6l-0,-15.4l-0.384,-28.2c1.28,-1.867 3.969,-2.8 8.067,-2.8c2.049,-0 3.073,1.933 3.073,5.8c0,1.733 -0.128,3.133 -0.384,4.2c-0,1.066 -0.064,1.833 -0.192,2.3c-0.128,0.466 -0.192,0.766 -0.192,0.9l-0,12.8c-0,17.733 -0.128,33.533 -0.384,47.4c-0.256,14 -0.384,29.733 -0.384,47.2c-0,3.333 -0.385,8.6 -1.153,15.8l-0.768,15.8c-0,3.866 -3.33,5.8 -9.988,5.8Z" style="fill:url(#_Linear15);fill-rule:nonzero;"/><path d="M2027.72,163.306c-4.61,-0 -8.131,-0.1 -10.564,-0.3c-2.433,-0.2 -5.058,-0.634 -7.875,-1.3c-3.074,-0.8 -5.379,-1.934 -6.915,-3.4c-0,-1.6 1.408,-2.4 4.226,-2.4c2.817,-0 6.402,0.466 10.756,1.4c4.097,1.066 7.555,1.6 10.372,1.6c5.634,-0 10.82,-1.2 15.558,-3.6c4.738,-2.4 8.388,-5.534 10.949,-9.4c5.122,-7.6 7.683,-14.334 7.683,-20.2c-0,-6.534 -1.793,-13.134 -5.379,-19.8c-3.585,-6.667 -8.323,-12.934 -14.213,-18.8c-1.281,-1.467 -3.458,-3.667 -6.531,-6.6c-6.402,-6.667 -11.268,-11.867 -14.598,-15.6c-3.329,-3.734 -6.274,-7.867 -8.835,-12.4c-3.586,-6 -5.378,-12.467 -5.378,-19.4c-0,-4.4 1.344,-8.634 4.033,-12.7c2.689,-4.067 6.979,-7.567 12.869,-10.5c6.403,-3.067 13.574,-4.6 21.513,-4.6c3.073,-0 6.787,0.633 11.14,1.9c4.354,1.266 6.531,2.5 6.531,3.7c0,1.066 -0.768,1.6 -2.305,1.6c-1.536,-0 -3.585,-0.334 -6.146,-1c-2.305,-0.667 -4.482,-1 -6.531,-1c-5.89,-0 -11.076,1.133 -15.558,3.4c-4.482,2.266 -7.747,5.066 -9.796,8.4c-1.793,2.8 -2.689,5.866 -2.689,9.2c-0,5.2 1.28,10.566 3.841,16.1c2.561,5.533 6.019,10.7 10.373,15.5l13.445,14.6l3.841,4.2c5.379,5.733 9.54,10.466 12.485,14.2c2.946,3.733 5.443,7.933 7.491,12.6c2.818,6.266 4.226,12.266 4.226,18c0,7.733 -3.841,15.6 -11.524,23.6c-3.842,3.866 -8.964,7 -15.367,9.4c-6.402,2.4 -13.445,3.6 -21.128,3.6Z" style="fill:url(#_Linear16);fill-rule:nonzero;"/><defs><linearGradient id="_Linear1" x1="0" y1="0" x2="1" y2="0" gradientUnits="userSpaceOnUse" gradientTransform="matrix(2987.97,0,0,291.981,-553.154,1518.15)"><stop offset="0" style="stop-color:#7526e0;stop-opacity:1"/><stop offset="1" style="stop-color:#230045;stop-opacity:1"/></linearGradient><linearGradient id="_Linear2" x1="0" y1="0" x2="1" y2="0" gradientUnits="userSpaceOnUse" gradientTransform="matrix(2987.97,0,0,291.981,-553.154,1518.15)"><stop offset="0" style="stop-color:#7526e0;stop-opacity:1"/><stop offset="1" style="stop-color:#230045;stop-opacity:1"/></linearGradient><linearGradient id="_Linear3" x1="0" y1="0" x2="1" y2="0" gradientUnits="userSpaceOnUse" gradientTransform="matrix(2987.97,0,0,291.981,-553.154,1518.15)"><stop offset="0" style="stop-color:#7526e0;stop-opacity:1"/><stop offset="1" style="stop-color:#230045;stop-opacity:1"/></linearGradient><linearGradient id="_Linear4" x1="0" y1="0" x2="1" y2="0" gradientUnits="userSpaceOnUse" gradientTransform="matrix(2987.97,0,0,291.981,-553.154,1518.15)"><stop offset="0" style="stop-color:#7526e0;stop-opacity:1"/><stop offset="1" style="stop-color:#230045;stop-opacity:1"/></linearGradient><linearGradient id="_Linear5" x1="0" y1="0" x2="1" y2="0" gradientUnits="userSpaceOnUse" gradientTransform="matrix(2987.97,0,0,291.981,-553.154,1518.15)"><stop offset="0" style="stop-color:#7526e0;stop-opacity:1"/><stop offset="1" style="stop-color:#230045;stop-opacity:1"/></linearGradient><linearGradient id="_Linear6" x1="0" y1="0" x2="1" y2="0" gradientUnits="userSpaceOnUse" gradientTransform="matrix(2987.97,0,0,291.981,-553.154,1518.15)"><stop offset="0" style="stop-color:#7526e0;stop-opacity:1"/><stop offset="1" style="stop-color:#230045;stop-opacity:1"/></linearGradient><linearGradient id="_Linear7" x1="0" y1="0" x2="1" y2="0" gradientUnits="userSpaceOnUse" gradientTransform="matrix(2987.97,0,0,291.981,-553.154,1518.15)"><stop offset="0" style="stop-color:#7526e0;stop-opacity:1"/><stop offset="1" style="stop-color:#230045;stop-opacity:1"/></linearGradient><linearGradient id="_Linear8" x1="0" y1="0" x2="1" y2="0" gradientUnits="userSpaceOnUse" gradientTransform="matrix(2987.97,0,0,291.981,-553.154,1518.15)"><stop offset="0" style="stop-color:#7526e0;stop-opacity:1"/><stop offset="1" style="stop-color:#230045;stop-opacity:1"/></linearGradient><linearGradient id="_Linear9" x1="0" y1="0" x2="1" y2="0" gradientUnits="userSpaceOnUse" gradientTransform="matrix(2987.97,0,0,291.981,-553.154,1518.15)"><stop offset="0" style="stop-color:#7526e0;stop-opacity:1"/><stop offset="1" style="stop-color:#230045;stop-opacity:1"/></linearGradient><linearGradient id="_Linear10" x1="0" y1="0" x2="1" y2="0" gradientUnits="userSpaceOnUse" gradientTransform="matrix(2987.97,0,0,291.981,-553.154,1518.15)"><stop offset="0" style="stop-color:#7526e0;stop-opacity:1"/><stop offset="1" style="stop-color:#230045;stop-opacity:1"/></linearGradient><linearGradient id="_Linear11" x1="0" y1="0" x2="1" y2="0" gradientUnits="userSpaceOnUse" gradientTransform="matrix(2987.97,0,0,291.981,-553.154,1518.15)"><stop offset="0" style="stop-color:#7526e0;stop-opacity:1"/><stop offset="1" style="stop-color:#230045;stop-opacity:1"/></linearGradient><linearGradient id="_Linear12" x1="0" y1="0" x2="1" y2="0" gradientUnits="userSpaceOnUse" gradientTransform="matrix(2987.97,0,0,291.981,-553.154,1518.15)"><stop offset="0" style="stop-color:#7526e0;stop-opacity:1"/><stop offset="1" style="stop-color:#230045;stop-opacity:1"/></linearGradient><linearGradient id="_Linear13" x1="0" y1="0" x2="1" y2="0" gradientUnits="userSpaceOnUse" gradientTransform="matrix(2987.97,0,0,291.981,-553.154,1518.15)"><stop offset="0" style="stop-color:#7526e0;stop-opacity:1"/><stop offset="1" style="stop-color:#230045;stop-opacity:1"/></linearGradient><linearGradient id="_Linear14" x1="0" y1="0" x2="1" y2="0" gradientUnits="userSpaceOnUse" gradientTransform="matrix(2987.97,0,0,291.981,-553.154,1518.15)"><stop offset="0" style="stop-color:#7526e0;stop-opacity:1"/><stop offset="1" style="stop-color:#230045;stop-opacity:1"/></linearGradient><linearGradient id="_Linear15" x1="0" y1="0" x2="1" y2="0" gradientUnits="userSpaceOnUse" gradientTransform="matrix(2987.97,0,0,291.981,-553.154,1518.15)"><stop offset="0" style="stop-color:#7526e0;stop-opacity:1"/><stop offset="1" style="stop-color:#230045;stop-opacity:1"/></linearGradient><linearGradient id="_Linear16" x1="0" y1="0" x2="1" y2="0" gradientUnits="userSpaceOnUse" gradientTransform="matrix(2987.97,0,0,291.981,-553.154,1518.15)"><stop offset="0" style="stop-color:#7526e0;stop-opacity:1"/><stop offset="1" style="stop-color:#230045;stop-opacity:1"/></linearGradient></defs></svg>